<svg width="42" height="73" viewBox="0 0 42 73" fill="none" xmlns="http://www.w3.org/2000/svg">
<path d="M2.10132 38.9587L32.0348 70.9007C32.7271 71.6401 33.6579 72.0537 34.6553 72.0652C35.6528 72.0767 36.5928 71.6846 37.302 70.9613L39.5599 68.6609C41.0292 67.1619 41.0576 64.6985 39.6231 63.1684L14.4873 36.3454L40.2625 10.0791C40.9717 9.35582 41.3698 8.38539 41.3817 7.34587C41.3937 6.30519 41.0181 5.32585 40.3257 4.58591L38.1213 2.23471C37.4285 1.49534 36.4982 1.0817 35.5008 1.07022C34.5034 1.05873 33.5633 1.45085 32.8542 2.17408L2.16477 33.4471C1.45393 34.1726 1.05686 35.1477 1.04709 36.189C1.03284 37.2342 1.40736 38.2176 2.10132 38.9587Z" fill="black"/>
</svg>
