<svg width="40" height="71" viewBox="0 0 40 71" fill="none" xmlns="http://www.w3.org/2000/svg">
<path d="M38.9139 32.7296L8.61476 1.13426C7.91398 0.402907 6.97849 0 5.98101 0C4.98353 0 4.04805 0.402907 3.34726 1.13426L1.11594 3.4605C-0.335999 4.97631 -0.335999 7.43993 1.11594 8.95343L26.5589 35.4853L1.08771 62.0466C0.386925 62.7779 0 63.7529 0 64.7925C0 65.8332 0.386925 66.8082 1.08771 67.5401L3.31903 69.8657C4.02037 70.5971 4.9553 71 5.95278 71C6.95026 71 7.88575 70.5971 8.58653 69.8657L38.9139 38.2416C39.6164 37.5079 40.0022 36.5283 40 35.487C40.0022 34.4416 39.6164 33.4627 38.9139 32.7296Z" fill="black"/>
</svg>
