<svg width="30" height="29" viewBox="0 0 30 29" fill="none" xmlns="http://www.w3.org/2000/svg">
<g clip-path="url(#clip0)">
<path d="M25.6066 4.28172C22.7735 1.55335 19.0066 0.0507202 15 0.0507202C10.9933 0.0507202 7.22643 1.55335 4.39336 4.28172C1.56023 7.01014 0 10.6378 0 14.4964C0 18.3549 1.56023 21.9826 4.39336 24.711C7.22648 27.4394 10.9933 28.942 15 28.942C19.0066 28.942 22.7735 27.4394 25.6066 24.711C28.4397 21.9826 30 18.3549 30 14.4964C30 10.6378 28.4397 7.0102 25.6066 4.28172ZM15 27.2492C7.69822 27.2492 1.75781 21.5283 1.75781 14.4964C1.75781 7.46445 7.69822 1.74357 15 1.74357C22.3018 1.74357 28.2422 7.46445 28.2422 14.4964C28.2422 21.5283 22.3018 27.2492 15 27.2492Z" fill="black"/>
<path d="M22.1663 9.86129C21.8231 9.53085 21.2666 9.53085 20.9234 9.86135L13.1622 17.3358L9.07658 13.4012C8.7334 13.0707 8.17688 13.0707 7.83363 13.4012C7.49039 13.7317 7.49039 14.2677 7.83363 14.5982L12.5406 19.1313C12.7123 19.2966 12.9372 19.3792 13.1621 19.3792C13.387 19.3792 13.612 19.2965 13.7835 19.1313L22.1663 11.0583C22.5096 10.7278 22.5096 10.1918 22.1663 9.86129Z" fill="black"/>
</g>
<defs>
<clipPath id="clip0">
<rect width="30" height="28.8913" fill="white" transform="translate(0 0.0507202)"/>
</clipPath>
</defs>
</svg>
