<svg width="15" height="15" viewBox="0 0 15 15" fill="none" xmlns="http://www.w3.org/2000/svg">
<g clip-path="url(#clip0)">
<path d="M12.8033 2.16622C11.3867 0.802036 9.50332 0.0507202 7.5 0.0507202C5.49665 0.0507202 3.61321 0.802036 2.19668 2.16622C0.780117 3.53043 0 5.34426 0 7.27355C0 9.20283 0.780117 11.0166 2.19668 12.3809C3.61324 13.7451 5.49665 14.4964 7.5 14.4964C9.50332 14.4964 11.3867 13.7451 12.8033 12.3809C14.2199 11.0166 15 9.20283 15 7.27355C15 5.34426 14.2199 3.53046 12.8033 2.16622ZM7.5 13.65C3.84911 13.65 0.878906 10.7895 0.878906 7.27355C0.878906 3.75758 3.84911 0.897146 7.5 0.897146C11.1509 0.897146 14.1211 3.75758 14.1211 7.27355C14.1211 10.7895 11.1509 13.65 7.5 13.65Z" fill="white"/>
<path d="M11.0832 4.95601C10.9116 4.79078 10.6333 4.79078 10.4617 4.95603L6.58108 8.69325L4.53829 6.72596C4.3667 6.56071 4.08844 6.56071 3.91682 6.72596C3.7452 6.89121 3.7452 7.15919 3.91682 7.32447L6.27032 9.591C6.35613 9.67364 6.4686 9.71495 6.58105 9.71495C6.69349 9.71495 6.80599 9.67361 6.89177 9.591L11.0832 5.55451C11.2548 5.38926 11.2548 5.12128 11.0832 4.95601Z" fill="white"/>
</g>
<defs>
<clipPath id="clip0">
<rect width="15" height="14.4457" fill="white" transform="translate(0 0.0507202)"/>
</clipPath>
</defs>
</svg>
