<svg width="160" height="42" viewBox="0 0 160 42" fill="none" xmlns="http://www.w3.org/2000/svg">
<g filter="url(#filter0_d)">
<path d="M27.9132 31.6777C25.4677 30.8907 22.9223 28.1853 21.6496 24.9881C20.8011 22.8729 20.7013 18.5689 21.4 15.839C21.949 13.6747 23.0969 10.8955 23.4463 10.8955C23.5711 10.8955 23.6709 10.7479 23.6709 10.5758C23.6709 10.4036 24.0702 9.78877 24.5443 9.24769L25.3928 8.23932L24.3447 8.09176C23.3714 7.9196 23.3215 7.895 23.7707 7.55068C24.0452 7.35393 24.17 7.20636 24.0452 7.20636C23.9205 7.20636 23.646 7.37852 23.4214 7.57528C23.072 7.895 22.7476 7.82122 20.6763 7.10798C19.3787 6.64069 17.008 5.7553 15.4358 5.09125C13.0901 4.13207 12.2167 3.91072 10.6695 3.81235C8.99748 3.71397 8.57325 3.78775 7.32551 4.35342C6.55191 4.69774 5.953 4.84531 6.00291 4.69774C6.20255 4.10748 8.49839 2.80398 9.77108 2.55804C10.919 2.31209 15.1613 2.18912 19.3038 2.2629C21.4 2.2875 23.7208 3.04992 26.0666 4.4518L28.0879 5.68151L30.0593 4.72234C32.455 3.54181 34.7259 3.17289 37.2713 3.54181C39.8167 3.88613 41.3639 4.50099 42.5617 5.63233C43.485 6.49313 43.6347 6.78826 43.6347 7.62447C43.6347 8.31311 43.485 8.7558 43.0857 9.12472C42.0876 10.0101 41.4138 10.0101 39.6669 9.10012L38.0948 8.26392L40.2159 8.14095C41.4886 8.06716 42.5118 7.895 42.7613 7.69825C43.3602 7.20636 43.1107 6.44394 42.1624 5.80449C39.5172 4.05829 33.7526 4.10748 31.0326 5.92746C30.0843 6.56691 30.0593 6.5915 30.6583 6.66529C31.0076 6.71448 32.1306 6.91123 33.1537 7.15717L35.0253 7.55068L33.0789 7.72284C32.0058 7.82122 30.9827 8.01797 30.8329 8.16554C30.6083 8.38689 30.808 8.41148 31.6564 8.26392C34.4264 7.77203 37.6955 8.26392 39.642 9.44444L40.5154 9.98552L39.8915 10.2069C38.9682 10.5512 33.2286 10.1577 30.4836 9.54282C30.0094 9.44445 29.7848 9.66579 29.0112 11.0431C25.4926 17.2408 25.4177 22.5532 28.8116 25.7751C30.1342 27.054 32.3302 28.1115 33.6029 28.1115C35.774 28.1115 39.2427 26.6113 40.4904 25.1356L41.1642 24.3732L42.0376 24.9389C42.8362 25.4799 42.8861 25.6029 42.7364 26.4637C42.5866 27.3491 42.6116 27.3983 43.0857 27.1524C43.8593 26.7588 46.0304 24.2994 47.0286 22.6762C47.5277 21.8892 48.0018 21.2743 48.0767 21.3235C48.3512 21.594 46.1053 24.7175 44.4583 26.3407C42.5866 28.1607 42.3121 28.6034 43.0358 28.6034C43.485 28.6034 45.5064 26.6851 46.1552 25.6521C46.5545 25.0618 46.5545 25.0618 46.829 25.5783C47.0785 25.9964 47.0036 26.2178 46.4047 26.9556C45.9056 27.5951 45.6311 27.7672 45.4315 27.5705C45.2319 27.3737 45.2069 27.4475 45.2818 27.7918C45.4315 28.3575 44.2337 29.4888 43.2105 29.7594C42.6865 29.8823 42.4369 29.7594 41.9628 29.2429L41.3888 28.5788L40.0912 28.9723C39.3675 29.1691 38.0199 29.7348 37.0966 30.2021C36.1733 30.6939 34.9505 31.235 34.3765 31.4318C33.3783 31.8007 33.3035 31.7761 31.9309 31.0629C30.3588 30.2266 27.8384 28.1853 26.9649 27.0294C25.3678 24.9635 24.17 21.594 24.17 19.2576C24.17 18.1016 24.744 15.4209 25.0434 15.1257C25.1183 15.0274 25.3429 15.1503 25.5425 15.3963C25.842 15.8144 25.8669 15.8144 25.9917 15.3963C26.0666 15.1503 26.2912 14.5355 26.5158 14.019C26.7403 13.5271 26.8651 13.109 26.7903 13.109C26.7403 13.109 26.5158 13.5025 26.2912 13.9944C25.9418 14.806 25.4177 14.9536 25.4177 14.2403C25.4177 13.7485 26.7653 11.9039 28.3874 10.1577C29.8846 8.53446 29.9845 8.09176 28.7367 8.7558C28.3375 8.95256 27.6886 9.29688 27.2394 9.51823C26.8152 9.73958 26.391 10.0839 26.3161 10.2807C26.2413 10.4774 26.0167 10.6496 25.817 10.6496C25.6423 10.6496 25.3928 10.8217 25.3179 11.0431C25.2431 11.2398 25.0434 11.3382 24.8937 11.2398C24.6941 11.1415 24.6691 11.166 24.7689 11.3382C24.8687 11.4858 24.5443 12.1498 24.0702 12.7893C23.072 14.1911 21.9989 17.3638 21.8991 19.2576C21.7993 21.3481 21.8991 22.7008 22.1487 22.7008C22.2734 22.7008 22.3233 21.963 22.2485 21.0284C22.1986 20.0938 22.2485 18.6919 22.3982 17.9049C22.6977 16.3554 23.8206 13.7485 24.6441 12.7155C25.3928 11.7809 28.1378 9.41985 28.4872 9.41985C28.6619 9.41985 28.4373 9.69039 28.013 10.0347C26.7154 11.0431 24.9186 13.8714 24.3946 15.716C22.7226 21.6924 25.4427 27.8164 31.2073 31.0137C31.8561 31.3826 32.4051 31.7515 32.4051 31.8253C32.4051 32.1204 28.9863 32.022 27.9132 31.6777V31.6777ZM27.464 29.7594C26.8651 29.1937 26.1664 28.3575 25.9168 27.9394C25.4427 27.1524 24.9186 26.8572 24.9186 27.3737C24.9186 27.5213 25.0684 27.6196 25.2431 27.6196C25.4177 27.6196 25.7671 28.1115 26.0167 28.7264C26.6156 30.1529 27.0148 30.4972 28.4123 30.7923C28.4872 30.7923 28.063 30.3496 27.464 29.7594V29.7594ZM41.2391 28.1115C41.3389 27.9886 41.4138 27.7918 41.3639 27.6442C41.3139 27.4967 40.9396 27.6442 40.5154 28.0132C39.7917 28.6034 39.7917 28.628 40.3906 28.4559C40.74 28.3821 41.1143 28.2099 41.2391 28.1115ZM29.9096 27.4229C28.4123 26.4391 26.8651 24.7421 26.1664 23.3648C25.7671 22.5532 25.4177 22.0367 25.4177 22.2335C25.4177 22.4302 25.7422 23.2419 26.1414 24.0535C26.8901 25.5783 27.9881 26.7834 29.2857 27.4475C30.2839 27.964 30.7082 27.9394 29.9096 27.4229V27.4229ZM23.9205 26.144C23.7707 25.8735 23.5461 25.6521 23.4214 25.6521C23.072 25.6521 23.1219 25.7997 23.5711 26.2424C24.0951 26.7834 24.2449 26.7343 23.9205 26.144ZM23.2467 24.7175C23.0221 24.1027 22.4232 23.291 22.4232 23.5862C22.4232 24.1518 22.9722 25.4062 23.1968 25.2832C23.2966 25.2094 23.3215 24.9635 23.2467 24.7175V24.7175ZM26.4159 5.21422C23.5711 3.32046 21.0756 2.53344 18.0561 2.55804L16.3092 2.58263L17.557 2.92695C18.2557 3.1237 20.6514 3.88613 22.9223 4.59936C25.1931 5.33719 27.1646 5.95205 27.2894 5.95205C27.4391 5.97665 27.0398 5.63233 26.4159 5.21422Z" fill="white"/>
<path d="M110.214 30.8169C109.865 30.7185 109.116 30.6447 108.592 30.6939C108.068 30.7185 107.369 30.6447 107.045 30.5463C106.546 30.3496 106.496 30.202 106.621 29.4888C106.77 28.6771 106.471 28.0869 106.147 28.6034C106.072 28.7263 106.122 28.8493 106.246 28.8493C106.396 28.8493 106.521 28.9723 106.521 29.0952C106.521 29.2428 106.196 29.3412 105.822 29.3412C104.724 29.3412 103.926 28.3574 103.876 26.8818C103.826 26.1931 103.901 25.652 104 25.652C104.375 25.652 104.549 23.8321 104.2 23.6353C103.726 23.3894 103.626 17.954 104.075 17.5113C104.275 17.3146 104.574 16.7735 104.774 16.3062C105.373 14.7322 106.521 13.8222 107.17 14.3387C107.344 14.5108 107.469 14.7322 107.394 14.8305C107.319 14.9535 107.369 15.1011 107.494 15.1995C107.619 15.2732 107.819 15.1749 107.943 15.0027C108.043 14.806 108.318 14.6092 108.517 14.5354C108.767 14.4616 108.567 14.2649 107.943 14.0189C106.795 13.527 106.895 13.2565 108.368 12.8876C110.189 12.4449 111.961 12.5433 112.984 13.1581C113.957 13.773 115.13 13.773 115.804 13.1827C116.029 12.986 116.677 12.7646 117.226 12.6908L118.225 12.5679L118.3 16.4292C118.349 18.5443 118.275 20.3397 118.175 20.4135C118.05 20.4872 117.002 20.1183 115.854 19.6264L113.758 18.6919V17.6343C113.758 16.8227 113.633 16.503 113.209 16.2078C112.435 15.6668 111.362 15.7159 110.738 16.3308C110.239 16.8227 110.239 17.0194 110.364 21.9137C110.539 27.718 110.539 27.7426 112.46 27.5458C113.059 27.472 113.608 27.3491 113.708 27.2507C113.808 27.1769 113.932 26.4637 114.007 25.7012L114.132 24.2994L115.48 23.8813C116.228 23.6353 117.177 23.3894 117.601 23.291L118.374 23.168L118.25 25.8488C118.125 28.4312 117.85 29.3412 117.202 29.3412C117.052 29.3412 116.628 29.6117 116.228 29.9315C115.08 30.8906 111.986 31.3333 110.214 30.8169V30.8169ZM108.767 21.2497C108.767 21.1267 108.592 20.9791 108.392 20.8807C108.193 20.807 108.018 20.8562 108.018 21.0037C108.018 21.1513 107.843 21.2251 107.644 21.1267C107.444 21.0529 107.27 21.1021 107.27 21.2251C107.27 21.3726 107.619 21.471 108.018 21.471C108.442 21.471 108.767 21.3726 108.767 21.2497ZM108.417 16.8965C108.343 16.6997 108.392 16.5521 108.542 16.5521C108.692 16.5521 108.692 16.4046 108.517 16.0849C108.318 15.6913 108.168 15.6668 107.694 15.8881C106.795 16.3062 107.27 17.7081 108.193 17.3638C108.392 17.29 108.492 17.0686 108.417 16.8965V16.8965ZM110.139 15.7897C110.239 15.6422 110.239 15.47 110.139 15.3716C110.064 15.2978 109.915 15.347 109.815 15.4946C109.715 15.6422 109.416 15.8143 109.141 15.8881C108.742 15.9865 108.792 16.0111 109.316 16.0357C109.69 16.0357 110.064 15.9373 110.139 15.7897V15.7897Z" fill="white"/>
<path d="M147.222 30.4726C147.047 30.1774 146.973 30.1282 147.047 30.3988C147.197 30.8415 146.598 31.0136 146.324 30.5709C146.249 30.448 146.024 30.3988 145.85 30.4726C145.675 30.5463 145.375 30.4234 145.201 30.202C145.026 30.0053 144.727 29.8331 144.552 29.8331C144.377 29.8331 144.028 29.4642 143.778 29.0461C143.354 28.2345 143.329 27.5704 143.229 18.7165L143.204 17.29H142.331H141.458V15.9373V14.5846H142.331H143.204V13.0598C143.204 10.7971 143.379 10.4036 144.277 10.4036C144.677 10.4036 146.374 10.1822 148.021 9.91171C149.668 9.61658 151.165 9.44442 151.365 9.5182C151.539 9.59198 151.689 9.98549 151.689 10.379C151.689 10.9693 151.514 11.2152 150.94 11.5103C150.117 11.9284 149.443 13.0106 149.443 13.9452C149.443 14.5108 149.543 14.56 150.89 14.6338L152.313 14.7076L152.388 16.0111L152.463 17.29H150.99H149.518L149.593 21.4219C149.643 23.6845 149.693 25.7505 149.693 26.021C149.718 27.0048 150.067 27.2015 151.639 27.1523L153.136 27.1031L153.111 28.628L153.062 30.1528L152.088 30.4726C151.564 30.6693 150.317 30.8661 149.318 30.9153C147.671 30.989 147.472 30.9645 147.222 30.4726V30.4726ZM148.096 29.0461C147.871 28.9231 147.497 28.8739 147.247 28.9231C146.948 28.9969 146.973 29.0461 147.397 29.0707C147.696 29.0707 147.946 29.2183 147.946 29.3658C147.946 29.4888 148.071 29.538 148.22 29.4396C148.42 29.3166 148.37 29.1937 148.096 29.0461V29.0461Z" fill="white"/>
<path d="M133.672 30.6201C131.775 30.5463 131.725 30.5217 131.725 29.9314C131.725 29.5133 131.625 29.3412 131.426 29.4396C127.533 31.0382 123.49 30.3249 122.717 27.9393C122.542 27.3736 122.392 24.988 122.342 22.0858C122.317 19.3805 122.217 16.9702 122.118 16.7489C122.018 16.5029 121.544 16.1832 121.07 16.0111C120.221 15.7159 120.196 15.6667 120.346 14.6338C120.421 14.0435 120.545 13.4778 120.595 13.404C120.645 13.3057 122.841 13.2565 125.462 13.3057L130.228 13.3795V14.5846C130.228 15.6913 130.153 15.8143 129.604 15.9619C128.531 16.2324 128.381 16.8473 128.356 21.5448C128.331 25.6766 128.356 25.9718 128.83 26.2915C129.579 26.7834 130.827 26.7342 131.351 26.1439C131.65 25.8242 131.825 25.2339 131.825 24.4715C131.825 23.832 131.95 23.2418 132.1 23.1434C132.249 23.0204 132.249 22.9467 132.05 22.9467C131.85 22.9467 131.775 21.594 131.75 18.1508L131.725 13.3549H135.468H139.212V14.8305C139.212 15.9127 139.112 16.3062 138.887 16.3062C138.688 16.3062 138.363 16.5029 138.139 16.7489C137.839 17.0932 137.739 17.8802 137.714 20.7332C137.615 28.0131 137.59 27.7425 138.588 28.3574C139.311 28.8001 139.461 29.046 139.461 29.7347V30.5709H137.864C136.991 30.5709 136.117 30.5955 135.918 30.6447C135.743 30.6693 134.72 30.6693 133.672 30.6201V30.6201ZM133.772 29.2182C133.497 28.7017 133.148 29.1198 133.372 29.7101C133.472 29.956 133.622 30.0298 133.772 29.8823C133.946 29.7101 133.946 29.4887 133.772 29.2182ZM135.543 29.0214C135.369 28.9231 135.119 28.8739 134.994 28.9723C134.87 29.046 134.695 28.9969 134.595 28.8493C134.395 28.5296 133.971 28.5296 133.971 28.8493C133.971 28.9969 134.121 29.0952 134.321 29.0952C134.52 29.0952 134.745 29.3166 134.845 29.5625C134.994 30.0298 135.019 30.0298 135.443 29.6363C135.793 29.292 135.793 29.169 135.543 29.0214V29.0214Z" fill="white"/>
<path d="M63.7234 29.8331C63.2992 29.3658 63.2493 28.9231 63.3241 25.4553C63.374 21.1021 63.7234 19.1592 64.8464 17.0686C65.2456 16.3062 65.9194 14.2649 66.3437 12.4941C68.2652 4.74689 69.438 2.21368 71.2348 2.04152C72.3578 1.91855 72.4077 1.99233 72.233 3.34502C72.1332 4.03366 72.0333 5.36175 71.9834 6.27174C71.9335 7.82118 71.9585 7.91956 72.5324 8.06713C73.5057 8.31307 74.3292 9.29684 74.3292 10.2314C74.3292 10.9693 74.429 11.0922 75.0778 11.2398C76.076 11.4365 76.0261 11.8792 75.0279 11.8792C74.5787 11.8792 73.6554 12.1744 72.9567 12.5187C72.1332 12.9122 71.3845 13.109 70.7607 13.0598C70.2116 13.0352 69.6876 13.1582 69.463 13.3549C69.1136 13.7238 65.8196 22.8483 64.8963 26.0948C64.4471 27.6688 64.4221 27.9147 64.7465 28.2345C64.9711 28.4312 65.1957 28.6034 65.2456 28.6034C65.6699 28.6034 66.4684 27.9393 67.0923 27.0785C67.9408 25.9226 68.1154 26.0456 67.3169 27.2015L66.7928 27.9885L67.4666 27.2507C68.889 25.6521 69.0887 25.3569 69.0887 24.8159C69.0887 23.8813 70.1118 20.6594 70.7856 19.4051C72.4077 16.4784 75.0279 14.6584 77.2239 14.9043C79.2952 15.1257 79.5697 15.716 79.1954 19.1346C79.0456 20.561 79.0706 20.93 79.395 21.2005C79.6196 21.3727 79.8941 21.4464 80.0438 21.3727C80.1686 21.2989 80.5679 20.3151 80.9422 19.2084C81.2916 18.077 81.8655 16.6997 82.2149 16.1341C82.7889 15.1749 82.9136 15.0765 83.837 15.0765C84.4109 15.0765 84.8851 15.1995 84.9599 15.3962C85.0098 15.5684 84.8352 16.3554 84.5606 17.1424C84.2861 17.954 84.0616 18.6427 84.0616 18.6673C84.0616 18.7165 84.5357 18.2492 85.1097 17.6343C86.4822 16.1833 87.9545 15.347 89.4518 15.1749C91.2485 15.0027 91.4482 15.1995 90.9491 16.8719C90.7245 17.6343 90.4749 18.4459 90.3751 18.6919C90.2753 18.9378 90.7744 18.5689 91.4482 17.8557C93.0203 16.2816 94.842 15.3716 96.7885 15.1503C98.0612 15.0273 98.3107 15.0765 98.4355 15.4454C98.5353 15.6914 97.8865 17.9786 96.8135 21.0775C95.8402 23.9305 95.0417 26.3899 95.0417 26.5621C95.0417 26.9802 96.9881 27.2261 97.4373 26.8572C98.0861 26.3161 100.532 22.6762 100.382 22.4302C100.107 21.9875 99.284 22.2335 98.9346 22.8975C98.6851 23.3402 98.5603 23.414 98.5353 23.1434C98.5353 22.9221 98.8348 22.504 99.1842 22.2335C99.7332 21.8154 99.9328 21.7662 100.382 22.0121C100.656 22.1843 101.006 22.3072 101.156 22.3318C101.28 22.3318 101.43 23.0943 101.48 24.0042C101.555 25.6275 101.53 25.7013 100.706 26.5129C100.182 27.0293 99.5086 27.3983 98.8847 27.4966C98.3107 27.6196 97.5621 27.9885 97.038 28.4804C95.8153 29.5872 95.1165 29.9069 94.3429 29.6855C93.9686 29.5872 93.5693 29.4888 93.4446 29.4888C93.2948 29.4642 92.9954 29.1445 92.7708 28.7264C92.3715 28.0377 92.3465 27.8164 92.671 26.021C92.8706 24.9388 93.3198 23.1189 93.6691 21.9875C94.0185 20.8316 94.293 19.7986 94.293 19.6756C94.293 19.1346 92.5711 19.8478 90.8742 21.1267C88.9028 22.627 88.5784 23.2172 87.705 26.7834C87.0062 29.6118 85.9581 30.7677 85.0597 29.7101C84.6605 29.2428 84.8851 26.6112 85.6088 23.6107C85.8833 22.4056 86.033 21.3727 85.9581 21.2989C85.8833 21.2251 85.3342 21.2743 84.7603 21.4218C83.787 21.6678 83.7371 21.6432 84.1863 21.3235C84.4608 21.1267 85.0847 20.8562 85.5588 20.7086C86.3324 20.4627 86.5071 20.2659 86.9813 18.987C87.2807 18.2 87.4304 17.5359 87.3057 17.5359C87.1809 17.5359 86.4822 18.1016 85.7335 18.7657C84.7353 19.6511 84.0865 20.561 83.3379 22.0367C82.7639 23.168 82.2399 24.3732 82.1899 24.6929C82.1151 25.0126 81.8406 26.2669 81.5162 27.472C81.067 29.2674 80.8673 29.6855 80.3682 29.9069C79.8442 30.1528 79.6945 30.1036 79.2952 29.6118C78.6464 28.8247 78.6464 28.6034 79.969 22.6516C80.1187 22.0367 80.0937 22.0121 79.4449 22.1597C78.9209 22.3072 78.6464 22.6762 78.0724 23.9797C76.8746 26.808 74.454 29.5626 73.7802 28.8985C73.5805 28.7018 73.905 28.2099 74.8782 27.1523C76.9744 24.9388 78.1223 22.3318 77.4485 21.3727C76.625 20.2167 77.174 17.0441 78.2221 17.0441C78.6963 17.0441 78.6713 16.5768 78.1972 16.4046C76.4004 15.716 73.6554 19.2575 72.208 24.0534C71.2348 27.2999 71.3346 28.6034 72.5574 28.6034C72.9567 28.6034 73.4059 28.751 73.5556 28.9477C73.9798 29.4396 73.1813 29.8331 71.7339 29.8331C70.4113 29.8331 69.7375 29.1691 69.3133 27.4475L69.0388 26.3899L68.2901 27.472C66.6182 29.9807 64.7465 30.9398 63.7234 29.8331ZM65.6699 29.0461C66.0442 28.7755 65.9943 28.7264 65.2207 28.7264C64.3722 28.7264 64.1726 28.8493 64.522 29.1691C64.7715 29.4396 65.1957 29.3658 65.6699 29.0461ZM95.9899 28.4558C96.7635 27.9393 96.6887 27.6934 95.6655 27.5704C94.8171 27.472 94.5426 27.6934 94.5426 28.505C94.5426 28.9723 95.2912 28.9477 95.9899 28.4558ZM99.6084 26.808C100.582 26.3899 101.106 25.5291 100.981 24.4224L100.906 23.5861L99.9078 25.0618C98.2608 27.472 98.2858 27.3491 99.6084 26.808ZM64.4471 21.3481C64.5469 20.7086 64.522 20.5364 64.3722 20.8562C64.2475 21.1267 64.0977 21.9629 64.0229 22.7007C63.8981 23.7337 63.923 23.8321 64.0728 23.1926C64.1975 22.7253 64.3473 21.8891 64.4471 21.3481ZM92.671 19.4543C93.3697 19.0854 94.1183 18.7657 94.3679 18.7657C94.5925 18.7657 94.7921 18.6673 94.7921 18.5443C94.7921 18.4213 94.867 18.1262 94.9668 17.8803C95.0916 17.5359 95.0167 17.4868 94.4427 17.6343C93.4446 17.8803 92.072 18.8148 90.9241 20.02C90.0257 20.9791 90.0008 21.0283 90.6746 20.6102C91.0988 20.3397 91.9972 19.8232 92.671 19.4543ZM72.9567 12.199C73.6804 11.8792 73.6305 11.8792 72.2579 11.9776C71.4594 12.0268 70.6608 12.199 70.5111 12.3465C70.1368 12.7155 72.0084 12.6171 72.9567 12.199ZM71.0351 9.96089C71.1849 9.51819 71.3596 8.48523 71.4344 7.62443C71.5592 6.39471 71.5342 6.24715 71.3346 6.83741C71.1849 7.25551 71.0601 7.7474 71.0102 7.94415C70.9852 8.14091 70.8854 8.43604 70.7856 8.55901C70.4861 9.0509 70.1118 10.7233 70.2616 10.9447C70.4362 11.2644 70.7107 10.9201 71.0351 9.96089ZM74.0796 10.4282C74.0796 9.56738 73.2811 8.53442 72.5075 8.38685C71.9834 8.28848 71.8836 8.41145 71.5342 9.71495L71.1599 11.1414H72.6323C74.0547 11.1414 74.0796 11.1414 74.0796 10.4282Z" fill="white"/>
<path d="M48.5009 29.2182C47.9519 28.7018 47.8771 28.4066 47.8771 26.8572C47.8771 25.3323 47.8272 25.1356 47.5027 25.4061C46.7791 25.9964 46.804 24.988 47.5277 23.7829C47.927 23.1188 48.2514 22.1843 48.2763 21.6186C48.3263 20.7086 48.7505 19.4543 50.0731 16.4538C50.2977 15.9373 50.7219 15.347 51.0214 15.1503C51.795 14.6584 52.7183 14.8306 52.8181 15.47C52.868 15.8881 51.3957 20.7578 50.697 22.4548C50.6221 22.6515 50.5223 22.9467 50.4973 23.0697C50.4474 23.2172 50.1729 24.2502 49.8984 25.3815C48.9252 29.0953 49.5241 29.7593 51.7451 27.472C52.7183 26.4637 53.1176 25.8488 53.1176 25.3815C53.1176 24.1764 53.5418 23.4386 54.2405 23.4386C54.7895 23.4386 55.0141 23.1188 56.187 20.684C58.2333 16.4538 58.3082 16.257 57.6593 15.4454C56.5863 14.1173 57.2102 12.6171 58.8073 12.6171C59.7805 12.6171 60.1798 13.2811 60.055 14.683C59.9552 15.5684 60.08 15.8389 61.0033 16.9703C62.6254 18.9132 63.1744 20.6348 63.0246 23.2418C62.8999 25.7258 62.276 27.2507 60.8286 28.6772C60.055 29.415 59.6308 29.6363 58.6825 29.7593C57.4347 29.8823 55.6131 29.3658 55.6131 28.8739C55.6131 28.7263 55.4633 28.6034 55.2637 28.6034C55.064 28.6034 54.6149 28.2591 54.2655 27.8409L53.6167 27.0785L52.2941 28.4558C51.1461 29.6609 50.8467 29.8331 50.0481 29.8331C49.3743 29.8331 48.9252 29.6609 48.5009 29.2182V29.2182ZM59.2315 28.2591C59.9053 27.595 60.3545 26.2177 60.3545 24.8404C60.3545 23.7583 59.7555 20.684 59.2565 19.3313C58.957 18.5197 58.8821 18.4459 58.7074 18.8886C58.383 19.7002 56.3867 22.9467 55.1888 24.6437L54.0908 26.2177L54.9143 27.3983C55.7378 28.6034 56.0123 28.7263 57.8091 28.8247C58.383 28.8493 58.8073 28.6772 59.2315 28.2591V28.2591ZM58.8572 14.1911C58.8572 13.8468 58.5577 13.7238 58.2832 13.9943C58.0586 14.2157 58.383 14.8551 58.6326 14.683C58.7574 14.6092 58.8572 14.3879 58.8572 14.1911V14.1911Z" fill="white"/>
<path d="M41.863 24.4715L41.0894 23.7829L41.4886 21.594C42.3121 16.8719 44.4083 13.773 45.8308 15.1749C46.23 15.5684 46.2051 15.7406 45.4065 17.8557C44.9573 19.11 44.2337 21.2497 43.7845 22.627C43.3602 24.0288 42.936 25.1602 42.8362 25.1602C42.7364 25.1602 42.2872 24.8651 41.863 24.4715V24.4715Z" fill="white"/>
</g>
<defs>
<filter id="filter0_d" x="0" y="0" width="159.136" height="42" filterUnits="userSpaceOnUse" color-interpolation-filters="sRGB">
<feFlood flood-opacity="0" result="BackgroundImageFix"/>
<feColorMatrix in="SourceAlpha" type="matrix" values="0 0 0 0 0 0 0 0 0 0 0 0 0 0 0 0 0 0 127 0"/>
<feOffset dy="4"/>
<feGaussianBlur stdDeviation="3"/>
<feColorMatrix type="matrix" values="0 0 0 0 0 0 0 0 0 0 0 0 0 0 0 0 0 0 0.4 0"/>
<feBlend mode="normal" in2="BackgroundImageFix" result="effect1_dropShadow"/>
<feBlend mode="normal" in="SourceGraphic" in2="effect1_dropShadow" result="shape"/>
</filter>
</defs>
</svg>
