<svg width="190" height="45" viewBox="0 0 190 45" fill="none" xmlns="http://www.w3.org/2000/svg">
<g filter="url(#filter0_d)">
<path d="M36.5287 36.375C34.0427 35.575 31.4553 32.825 30.1615 29.575C29.2991 27.425 29.1976 23.05 29.9079 20.275C30.466 18.075 31.6328 15.25 31.988 15.25C32.1148 15.25 32.2163 15.1 32.2163 14.925C32.2163 14.75 32.6222 14.125 33.1041 13.575L33.9666 12.55L32.9012 12.4C31.9119 12.225 31.8611 12.2 32.3178 11.85C32.5968 11.65 32.7236 11.5 32.5968 11.5C32.47 11.5 32.1909 11.675 31.9626 11.875C31.6075 12.2 31.2777 12.125 29.1722 11.4C27.8531 10.925 25.4433 10.025 23.8451 9.34999C21.4606 8.37499 20.5728 8.14999 19 8.04999C17.3004 7.94999 16.8692 8.02499 15.6008 8.59999C14.8144 8.94999 14.2056 9.09999 14.2563 8.94999C14.4593 8.34999 16.7931 7.02499 18.0868 6.77499C19.2537 6.52499 23.5661 6.39999 27.777 6.47499C29.9079 6.49999 32.267 7.27499 34.6515 8.69999L36.7063 9.94999L38.7103 8.97499C41.1455 7.77499 43.4539 7.39999 46.0414 7.77499C48.6288 8.12499 50.2016 8.74999 51.4192 9.89999C52.3578 10.775 52.51 11.075 52.51 11.925C52.51 12.625 52.3578 13.075 51.9519 13.45C50.9372 14.35 50.2523 14.35 48.4766 13.425L46.8785 12.575L49.0347 12.45C50.3284 12.375 51.3685 12.2 51.6222 12C52.231 11.5 51.9773 10.725 51.0133 10.075C48.3244 8.29999 42.4646 8.34999 39.6996 10.2C38.7356 10.85 38.7103 10.875 39.3191 10.95C39.6742 11 40.8157 11.2 41.8558 11.45L43.7583 11.85L41.7797 12.025C40.6889 12.125 39.6489 12.325 39.4967 12.475C39.2684 12.7 39.4713 12.725 40.3338 12.575C43.1495 12.075 46.4726 12.575 48.4513 13.775L49.3391 14.325L48.7049 14.55C47.7663 14.9 41.9319 14.5 39.1415 13.875C38.6595 13.775 38.4312 14 37.6449 15.4C34.0681 21.7 33.992 27.1 37.4419 30.375C38.7864 31.675 41.0187 32.75 42.3124 32.75C44.5194 32.75 48.0454 31.225 49.3137 29.725L49.9987 28.95L50.8865 29.525C51.6983 30.075 51.749 30.2 51.5968 31.075C51.4446 31.975 51.47 32.025 51.9519 31.775C52.7383 31.375 54.9453 28.875 55.9599 27.225C56.4673 26.425 56.9493 25.8 57.0254 25.85C57.3044 26.125 55.0214 29.3 53.3471 30.95C51.4446 32.8 51.1655 33.25 51.9012 33.25C52.3578 33.25 54.4125 31.3 55.0721 30.25C55.478 29.65 55.478 29.65 55.757 30.175C56.0107 30.6 55.9346 30.825 55.3258 31.575C54.8184 32.225 54.5394 32.4 54.3364 32.2C54.1335 32 54.1081 32.075 54.1842 32.425C54.3364 33 53.1188 34.15 52.0788 34.425C51.5461 34.55 51.2924 34.425 50.8104 33.9L50.227 33.225L48.9079 33.625C48.1722 33.825 46.8024 34.4 45.8638 34.875C44.9252 35.375 43.6822 35.925 43.0988 36.125C42.0841 36.5 42.008 36.475 40.6128 35.75C39.0147 34.9 36.4526 32.825 35.5647 31.65C33.9412 29.55 32.7236 26.125 32.7236 23.75C32.7236 22.575 33.3071 19.85 33.6115 19.55C33.6876 19.45 33.9159 19.575 34.1188 19.825C34.4232 20.25 34.4486 20.25 34.5754 19.825C34.6515 19.575 34.8798 18.95 35.1081 18.425C35.3364 17.925 35.4633 17.5 35.3872 17.5C35.3364 17.5 35.1081 17.9 34.8798 18.4C34.5247 19.225 33.992 19.375 33.992 18.65C33.992 18.15 35.3618 16.275 37.0107 14.5C38.5327 12.85 38.6342 12.4 37.3658 13.075C36.9599 13.275 36.3004 13.625 35.8438 13.85C35.4125 14.075 34.9813 14.425 34.9052 14.625C34.8291 14.825 34.6008 15 34.3979 15C34.2203 15 33.9666 15.175 33.8905 15.4C33.8144 15.6 33.6115 15.7 33.4593 15.6C33.2563 15.5 33.231 15.525 33.3324 15.7C33.4339 15.85 33.1041 16.525 32.6222 17.175C31.6075 18.6 30.5167 21.825 30.4152 23.75C30.3137 25.875 30.4152 27.25 30.6689 27.25C30.7957 27.25 30.8465 26.5 30.7704 25.55C30.7196 24.6 30.7704 23.175 30.9226 22.375C31.227 20.8 32.3685 18.15 33.2056 17.1C33.9666 16.15 36.757 13.75 37.1121 13.75C37.2897 13.75 37.0614 14.025 36.6302 14.375C35.3111 15.4 33.4846 18.275 32.9519 20.15C31.2523 26.225 34.0174 32.45 39.8772 35.7C40.5367 36.075 41.0948 36.45 41.0948 36.525C41.0948 36.825 37.6195 36.725 36.5287 36.375ZM36.0721 34.425C35.4633 33.85 34.753 33 34.4993 32.575C34.0174 31.775 33.4846 31.475 33.4846 32C33.4846 32.15 33.6368 32.25 33.8144 32.25C33.992 32.25 34.3471 32.75 34.6008 33.375C35.2096 34.825 35.6155 35.175 37.036 35.475C37.1121 35.475 36.6809 35.025 36.0721 34.425ZM50.0748 32.75C50.1762 32.625 50.2523 32.425 50.2016 32.275C50.1509 32.125 49.7704 32.275 49.3391 32.65C48.6035 33.25 48.6035 33.275 49.2123 33.1C49.5674 33.025 49.9479 32.85 50.0748 32.75ZM38.5581 32.05C37.036 31.05 35.4633 29.325 34.753 27.925C34.3471 27.1 33.992 26.575 33.992 26.775C33.992 26.975 34.3218 27.8 34.7276 28.625C35.4886 30.175 36.6048 31.4 37.9239 32.075C38.9386 32.6 39.3698 32.575 38.5581 32.05ZM32.47 30.75C32.3178 30.475 32.0894 30.25 31.9626 30.25C31.6075 30.25 31.6582 30.4 32.1148 30.85C32.6475 31.4 32.7997 31.35 32.47 30.75ZM31.785 29.3C31.5567 28.675 30.9479 27.85 30.9479 28.15C30.9479 28.725 31.506 30 31.7343 29.875C31.8358 29.8 31.8611 29.55 31.785 29.3ZM35.0067 9.47499C32.1148 7.54999 29.5781 6.74999 26.5087 6.77499L24.733 6.79999L26.0013 7.14999C26.7116 7.34999 29.1469 8.12499 31.4553 8.84999C33.7637 9.59999 35.7677 10.225 35.8945 10.225C36.0467 10.25 35.6408 9.89999 35.0067 9.47499Z" fill="white"/>
<path d="M120.19 35.5C119.834 35.4 119.073 35.325 118.541 35.375C118.008 35.4 117.298 35.325 116.968 35.225C116.461 35.025 116.41 34.875 116.537 34.15C116.689 33.325 116.385 32.725 116.055 33.25C115.979 33.375 116.029 33.5 116.156 33.5C116.308 33.5 116.435 33.625 116.435 33.75C116.435 33.9 116.105 34 115.725 34C114.609 34 113.797 33 113.746 31.5C113.696 30.8 113.772 30.25 113.873 30.25C114.254 30.25 114.431 28.4 114.076 28.2C113.594 27.95 113.493 22.425 113.949 21.975C114.152 21.775 114.457 21.225 114.66 20.75C115.268 19.15 116.435 18.225 117.095 18.75C117.272 18.925 117.399 19.15 117.323 19.25C117.247 19.375 117.298 19.525 117.425 19.625C117.551 19.7 117.754 19.6 117.881 19.425C117.983 19.225 118.262 19.025 118.465 18.95C118.718 18.875 118.515 18.675 117.881 18.425C116.714 17.925 116.816 17.65 118.312 17.275C120.164 16.825 121.965 16.925 123.005 17.55C123.995 18.175 125.187 18.175 125.872 17.575C126.1 17.375 126.76 17.15 127.318 17.075L128.332 16.95L128.409 20.875C128.459 23.025 128.383 24.85 128.282 24.925C128.155 25 127.089 24.625 125.923 24.125L123.792 23.175V22.1C123.792 21.275 123.665 20.95 123.234 20.65C122.447 20.1 121.356 20.15 120.722 20.775C120.215 21.275 120.215 21.475 120.342 26.45C120.519 32.35 120.519 32.375 122.473 32.175C123.081 32.1 123.64 31.975 123.741 31.875C123.842 31.8 123.969 31.075 124.045 30.3L124.172 28.875L125.542 28.45C126.303 28.2 127.267 27.95 127.698 27.85L128.485 27.725L128.358 30.45C128.231 33.075 127.952 34 127.292 34C127.14 34 126.709 34.275 126.303 34.6C125.136 35.575 121.991 36.025 120.19 35.5ZM118.718 25.775C118.718 25.65 118.541 25.5 118.338 25.4C118.135 25.325 117.957 25.375 117.957 25.525C117.957 25.675 117.78 25.75 117.577 25.65C117.374 25.575 117.196 25.625 117.196 25.75C117.196 25.9 117.551 26 117.957 26C118.389 26 118.718 25.9 118.718 25.775ZM118.363 21.35C118.287 21.15 118.338 21 118.49 21C118.642 21 118.642 20.85 118.465 20.525C118.262 20.125 118.109 20.1 117.628 20.325C116.714 20.75 117.196 22.175 118.135 21.825C118.338 21.75 118.439 21.525 118.363 21.35ZM120.113 20.225C120.215 20.075 120.215 19.9 120.113 19.8C120.037 19.725 119.885 19.775 119.784 19.925C119.682 20.075 119.378 20.25 119.099 20.325C118.693 20.425 118.744 20.45 119.276 20.475C119.657 20.475 120.037 20.375 120.113 20.225Z" fill="white"/>
<path d="M157.809 35.15C157.632 34.85 157.555 34.8 157.632 35.075C157.784 35.525 157.175 35.7 156.896 35.25C156.82 35.125 156.591 35.075 156.414 35.15C156.236 35.225 155.932 35.1 155.754 34.875C155.577 34.675 155.272 34.5 155.095 34.5C154.917 34.5 154.562 34.125 154.308 33.7C153.877 32.875 153.852 32.2 153.75 23.2L153.725 21.75H152.837H151.949V20.375V19H152.837H153.725V17.45C153.725 15.15 153.903 14.75 154.816 14.75C155.222 14.75 156.947 14.525 158.621 14.25C160.295 13.95 161.817 13.775 162.02 13.85C162.198 13.925 162.35 14.325 162.35 14.725C162.35 15.325 162.172 15.575 161.589 15.875C160.752 16.3 160.067 17.4 160.067 18.35C160.067 18.925 160.168 18.975 161.538 19.05L162.984 19.125L163.06 20.45L163.136 21.75H161.64H160.143L160.219 25.95C160.27 28.25 160.32 30.35 160.32 30.625C160.346 31.625 160.701 31.825 162.299 31.775L163.821 31.725L163.796 33.275L163.745 34.825L162.756 35.15C162.223 35.35 160.955 35.55 159.94 35.6C158.266 35.675 158.063 35.65 157.809 35.15ZM158.697 33.7C158.469 33.575 158.088 33.525 157.834 33.575C157.53 33.65 157.555 33.7 157.987 33.725C158.291 33.725 158.545 33.875 158.545 34.025C158.545 34.15 158.672 34.2 158.824 34.1C159.027 33.975 158.976 33.85 158.697 33.7Z" fill="white"/>
<path d="M144.035 35.3C142.107 35.225 142.056 35.2 142.056 34.6C142.056 34.175 141.955 34 141.752 34.1C137.794 35.725 133.685 35 132.899 32.575C132.721 32 132.569 29.575 132.518 26.625C132.493 23.875 132.391 21.425 132.29 21.2C132.188 20.95 131.706 20.625 131.224 20.45C130.362 20.15 130.336 20.1 130.489 19.05C130.565 18.45 130.692 17.875 130.742 17.8C130.793 17.7 133.025 17.65 135.689 17.7L140.534 17.775V19C140.534 20.125 140.458 20.25 139.9 20.4C138.809 20.675 138.657 21.3 138.632 26.075C138.606 30.275 138.632 30.575 139.114 30.9C139.875 31.4 141.143 31.35 141.676 30.75C141.98 30.425 142.158 29.825 142.158 29.05C142.158 28.4 142.284 27.8 142.437 27.7C142.589 27.575 142.589 27.5 142.386 27.5C142.183 27.5 142.107 26.125 142.081 22.625L142.056 17.75H145.861H149.666V19.25C149.666 20.35 149.565 20.75 149.336 20.75C149.134 20.75 148.804 20.95 148.575 21.2C148.271 21.55 148.17 22.35 148.144 25.25C148.043 32.65 148.017 32.375 149.032 33C149.768 33.45 149.92 33.7 149.92 34.4V35.25H148.296C147.409 35.25 146.521 35.275 146.318 35.325C146.14 35.35 145.1 35.35 144.035 35.3ZM144.136 33.875C143.857 33.35 143.502 33.775 143.73 34.375C143.832 34.625 143.984 34.7 144.136 34.55C144.314 34.375 144.314 34.15 144.136 33.875ZM145.937 33.675C145.76 33.575 145.506 33.525 145.379 33.625C145.252 33.7 145.075 33.65 144.973 33.5C144.77 33.175 144.339 33.175 144.339 33.5C144.339 33.65 144.491 33.75 144.694 33.75C144.897 33.75 145.126 33.975 145.227 34.225C145.379 34.7 145.405 34.7 145.836 34.3C146.191 33.95 146.191 33.825 145.937 33.675Z" fill="white"/>
<path d="M72.9306 34.5C72.4993 34.025 72.4486 33.575 72.5247 30.05C72.5754 25.625 72.9306 23.65 74.0721 21.525C74.478 20.75 75.1629 18.675 75.5941 16.875C77.5474 9 78.7397 6.425 80.5661 6.25C81.7076 6.125 81.7583 6.2 81.5808 7.575C81.4793 8.275 81.3778 9.625 81.3271 10.55C81.2764 12.125 81.3017 12.225 81.8852 12.375C82.8745 12.625 83.7116 13.625 83.7116 14.575C83.7116 15.325 83.8131 15.45 84.4726 15.6C85.4873 15.8 85.4366 16.25 84.4219 16.25C83.9653 16.25 83.0267 16.55 82.3164 16.9C81.4793 17.3 80.7183 17.5 80.0841 17.45C79.526 17.425 78.9933 17.55 78.765 17.75C78.4099 18.125 75.0614 27.4 74.1228 30.7C73.6662 32.3 73.6409 32.55 73.9706 32.875C74.1989 33.075 74.4272 33.25 74.478 33.25C74.9092 33.25 75.721 32.575 76.3551 31.7C77.2176 30.525 77.3952 30.65 76.5834 31.825L76.0507 32.625L76.7356 31.875C78.1816 30.25 78.3845 29.95 78.3845 29.4C78.3845 28.45 79.4246 25.175 80.1095 23.9C81.7583 20.925 84.4219 19.075 86.6542 19.325C88.7597 19.55 89.0387 20.15 88.6582 23.625C88.506 25.075 88.5314 25.45 88.8611 25.725C89.0894 25.9 89.3685 25.975 89.5207 25.9C89.6475 25.825 90.0534 24.825 90.4339 23.7C90.7891 22.55 91.3725 21.15 91.7276 20.575C92.3111 19.6 92.4379 19.5 93.3765 19.5C93.9599 19.5 94.4419 19.625 94.518 19.825C94.5688 20 94.3912 20.8 94.1121 21.6C93.8331 22.425 93.6048 23.125 93.6048 23.15C93.6048 23.2 94.0868 22.725 94.6702 22.1C96.0654 20.625 97.5621 19.775 99.0841 19.6C100.911 19.425 101.113 19.625 100.606 21.325C100.378 22.1 100.124 22.925 100.023 23.175C99.9212 23.425 100.429 23.05 101.113 22.325C102.712 20.725 104.563 19.8 106.542 19.575C107.836 19.45 108.089 19.5 108.216 19.875C108.318 20.125 107.658 22.45 106.567 25.6C105.578 28.5 104.766 31 104.766 31.175C104.766 31.6 106.745 31.85 107.202 31.475C107.861 30.925 110.347 27.225 110.195 26.975C109.916 26.525 109.079 26.775 108.724 27.45C108.47 27.9 108.343 27.975 108.318 27.7C108.318 27.475 108.622 27.05 108.977 26.775C109.535 26.35 109.738 26.3 110.195 26.55C110.474 26.725 110.829 26.85 110.981 26.875C111.108 26.875 111.26 27.65 111.311 28.575C111.387 30.225 111.362 30.3 110.525 31.125C109.992 31.65 109.307 32.025 108.673 32.125C108.089 32.25 107.328 32.625 106.796 33.125C105.553 34.25 104.842 34.575 104.056 34.35C103.676 34.25 103.27 34.15 103.143 34.15C102.991 34.125 102.686 33.8 102.458 33.375C102.052 32.675 102.027 32.45 102.356 30.625C102.559 29.525 103.016 27.675 103.371 26.525C103.726 25.35 104.005 24.3 104.005 24.175C104.005 23.625 102.255 24.35 100.53 25.65C98.526 27.175 98.1963 27.775 97.3084 31.4C96.5981 34.275 95.5327 35.45 94.6195 34.375C94.2136 33.9 94.4419 31.225 95.1776 28.175C95.4566 26.95 95.6088 25.9 95.5327 25.825C95.4566 25.75 94.8985 25.8 94.3151 25.95C93.3258 26.2 93.275 26.175 93.7316 25.85C94.0107 25.65 94.6449 25.375 95.1268 25.225C95.9132 24.975 96.0908 24.775 96.5728 23.475C96.8772 22.675 97.0294 22 96.9025 22C96.7757 22 96.0654 22.575 95.3044 23.25C94.2897 24.15 93.6302 25.075 92.8692 26.575C92.2857 27.725 91.753 28.95 91.7023 29.275C91.6262 29.6 91.3471 30.875 91.0174 32.1C90.5607 33.925 90.3578 34.35 89.8505 34.575C89.3178 34.825 89.1656 34.775 88.7597 34.275C88.1001 33.475 88.1001 33.25 89.4446 27.2C89.5968 26.575 89.5714 26.55 88.9119 26.7C88.3792 26.85 88.1001 27.225 87.5167 28.55C86.2991 31.425 83.8384 34.225 83.1535 33.55C82.9506 33.35 83.2804 32.85 84.2697 31.775C86.4005 29.525 87.5674 26.875 86.8825 25.9C86.0454 24.725 86.6035 21.5 87.6689 21.5C88.1509 21.5 88.1255 21.025 87.6435 20.85C85.8171 20.15 83.0267 23.75 81.5554 28.625C80.5661 31.925 80.6676 33.25 81.9105 33.25C82.3164 33.25 82.773 33.4 82.9252 33.6C83.3565 34.1 82.5447 34.5 81.0734 34.5C79.729 34.5 79.0441 33.825 78.6128 32.075L78.3338 31L77.5728 32.1C75.8732 34.65 73.9706 35.625 72.9306 34.5ZM74.9092 33.7C75.2897 33.425 75.239 33.375 74.4526 33.375C73.5901 33.375 73.3872 33.5 73.7423 33.825C73.996 34.1 74.4272 34.025 74.9092 33.7ZM105.73 33.1C106.517 32.575 106.441 32.325 105.401 32.2C104.538 32.1 104.259 32.325 104.259 33.15C104.259 33.625 105.02 33.6 105.73 33.1ZM109.409 31.425C110.398 31 110.931 30.125 110.804 29L110.728 28.15L109.713 29.65C108.039 32.1 108.064 31.975 109.409 31.425ZM73.6662 25.875C73.7677 25.225 73.7423 25.05 73.5901 25.375C73.4633 25.65 73.3111 26.5 73.235 27.25C73.1082 28.3 73.1335 28.4 73.2857 27.75C73.4126 27.275 73.5648 26.425 73.6662 25.875ZM102.356 23.95C103.067 23.575 103.828 23.25 104.081 23.25C104.31 23.25 104.513 23.15 104.513 23.025C104.513 22.9 104.589 22.6 104.69 22.35C104.817 22 104.741 21.95 104.158 22.1C103.143 22.35 101.748 23.3 100.581 24.525C99.6676 25.5 99.6422 25.55 100.327 25.125C100.758 24.85 101.672 24.325 102.356 23.95ZM82.3164 16.575C83.0521 16.25 83.0013 16.25 81.6061 16.35C80.7944 16.4 79.9826 16.575 79.8304 16.725C79.4499 17.1 81.3525 17 82.3164 16.575ZM80.3631 14.3C80.5154 13.85 80.6929 12.8 80.769 11.925C80.8959 10.675 80.8705 10.525 80.6676 11.125C80.5154 11.55 80.3885 12.05 80.3378 12.25C80.3124 12.45 80.2109 12.75 80.1095 12.875C79.8051 13.375 79.4246 15.075 79.5768 15.3C79.7543 15.625 80.0334 15.275 80.3631 14.3ZM83.4579 14.775C83.4579 13.9 82.6462 12.85 81.8598 12.7C81.3271 12.6 81.2256 12.725 80.8705 14.05L80.49 15.5H81.9867C83.4326 15.5 83.4579 15.5 83.4579 14.775Z" fill="white"/>
<path d="M57.4566 33.875C56.8985 33.35 56.8224 33.05 56.8224 31.475C56.8224 29.925 56.7717 29.725 56.4419 30C55.7063 30.6 55.7316 29.575 56.4673 28.35C56.8732 27.675 57.2029 26.725 57.2283 26.15C57.279 25.225 57.7103 23.95 59.0547 20.9C59.283 20.375 59.7143 19.775 60.0187 19.575C60.8051 19.075 61.7437 19.25 61.8451 19.9C61.8959 20.325 60.3992 25.275 59.6889 27C59.6128 27.2 59.5114 27.5 59.486 27.625C59.4352 27.775 59.1562 28.825 58.8772 29.975C57.8879 33.75 58.4967 34.425 60.7543 32.1C61.7437 31.075 62.1495 30.45 62.1495 29.975C62.1495 28.75 62.5808 28 63.2911 28C63.8491 28 64.0774 27.675 65.2697 25.2C67.3498 20.9 67.4259 20.7 66.7664 19.875C65.6756 18.525 66.3097 17 67.9332 17C68.9226 17 69.3284 17.675 69.2016 19.1C69.1001 20 69.227 20.275 70.1656 21.425C71.8144 23.4 72.3725 25.15 72.2203 27.8C72.0935 30.325 71.4593 31.875 69.988 33.325C69.2016 34.075 68.7704 34.3 67.8064 34.425C66.538 34.55 64.6862 34.025 64.6862 33.525C64.6862 33.375 64.534 33.25 64.3311 33.25C64.1282 33.25 63.6716 32.9 63.3164 32.475L62.6569 31.7L61.3124 33.1C60.1455 34.325 59.8411 34.5 59.0294 34.5C58.3445 34.5 57.8879 34.325 57.4566 33.875ZM68.3645 32.9C69.0494 32.225 69.506 30.825 69.506 29.425C69.506 28.325 68.8972 25.2 68.3899 23.825C68.0855 23 68.0093 22.925 67.8318 23.375C67.502 24.2 65.4726 27.5 64.255 29.225L63.1389 30.825L63.976 32.025C64.8131 33.25 65.0921 33.375 66.9186 33.475C67.502 33.5 67.9332 33.325 68.3645 32.9ZM67.984 18.6C67.984 18.25 67.6796 18.125 67.4005 18.4C67.1722 18.625 67.502 19.275 67.7557 19.1C67.8825 19.025 67.984 18.8 67.984 18.6Z" fill="white"/>
<path d="M50.7089 29.05L49.9226 28.35L50.3284 26.125C51.1655 21.325 53.2964 18.175 54.7423 19.6C55.1482 20 55.1228 20.175 54.3111 22.325C53.8545 23.6 53.1188 25.775 52.6622 27.175C52.231 28.6 51.7997 29.75 51.6983 29.75C51.5968 29.75 51.1402 29.45 50.7089 29.05Z" fill="white"/>
</g>
<defs>
<filter id="filter0_d" x="-4" y="0" width="198" height="51" filterUnits="userSpaceOnUse" color-interpolation-filters="sRGB">
<feFlood flood-opacity="0" result="BackgroundImageFix"/>
<feColorMatrix in="SourceAlpha" type="matrix" values="0 0 0 0 0 0 0 0 0 0 0 0 0 0 0 0 0 0 127 0"/>
<feOffset dy="4"/>
<feGaussianBlur stdDeviation="2"/>
<feColorMatrix type="matrix" values="0 0 0 0 0 0 0 0 0 0 0 0 0 0 0 0 0 0 0.69 0"/>
<feBlend mode="normal" in2="BackgroundImageFix" result="effect1_dropShadow"/>
<feBlend mode="normal" in="SourceGraphic" in2="effect1_dropShadow" result="shape"/>
</filter>
</defs>
</svg>
