<svg width="652" height="143" viewBox="0 0 652 143" fill="none" xmlns="http://www.w3.org/2000/svg">
<g filter="url(#filter0_d)">
<path d="M101.315 131.088C90.6775 127.664 79.606 115.897 74.0702 101.99C70.3797 92.7899 69.9455 74.069 72.9847 62.1946C75.3727 52.7806 80.3658 40.6922 81.8854 40.6922C82.4281 40.6922 82.8623 40.0504 82.8623 39.3015C82.8623 38.5527 84.599 35.8783 86.6614 33.5248L90.3519 29.1388L85.793 28.4969C81.5598 27.7481 81.3427 27.6411 83.2965 26.1434C84.4905 25.2876 85.0332 24.6457 84.4905 24.6457C83.9477 24.6457 82.7537 25.3946 81.7768 26.2504C80.2572 27.6411 78.8461 27.3201 69.8369 24.2178C64.1926 22.1853 53.8809 18.3341 47.0425 15.4457C36.8393 11.2736 33.0403 10.3108 26.3105 9.88294C19.038 9.45503 17.1927 9.77596 11.7655 12.2364C8.40063 13.7341 5.79555 14.376 6.01264 13.7341C6.881 11.1667 16.8671 5.49689 22.4029 4.42712C27.396 3.35735 45.8486 2.82247 63.867 3.1434C72.9847 3.25038 83.0794 6.56666 93.2826 12.6643L102.075 18.0132L110.65 13.8411C121.07 8.70619 130.948 7.10154 142.019 8.70619C153.091 10.2039 159.82 12.8783 165.031 17.7992C169.047 21.5434 169.698 22.8271 169.698 26.4643C169.698 29.4597 169.047 31.3853 167.31 32.9899C162.968 36.8411 160.038 36.8411 152.439 32.8829L145.601 29.2457L154.827 28.7108C160.363 28.3899 164.814 27.6411 165.899 26.7853C168.504 24.6457 167.419 21.3294 163.294 18.5481C151.788 10.9527 126.714 11.1667 114.883 19.0829C110.758 21.8643 110.65 21.9713 113.255 22.2922C114.774 22.5062 119.659 23.362 124.109 24.4318L132.25 26.1434L123.784 26.8922C119.116 27.3201 114.666 28.176 114.015 28.8178C113.038 29.7806 113.906 29.8876 117.597 29.2457C129.645 27.1062 143.864 29.2457 152.331 34.3806L156.13 36.7341L153.416 37.6969C149.4 39.1946 124.435 37.4829 112.495 34.8085C110.433 34.3806 109.456 35.3434 106.091 41.3341C90.786 68.2922 90.4604 91.3992 105.223 105.413C110.975 110.976 120.527 115.576 126.063 115.576C135.506 115.576 150.594 109.05 156.021 102.632L158.952 99.3155L162.751 101.776C166.225 104.129 166.442 104.664 165.79 108.409C165.139 112.26 165.248 112.474 167.31 111.404C170.675 109.692 180.118 98.9946 184.46 91.9341C186.631 88.5108 188.693 85.8364 189.019 86.0504C190.213 87.2271 180.444 100.813 173.28 107.874C165.139 115.79 163.945 117.715 167.093 117.715C169.047 117.715 177.839 109.371 180.661 104.878C182.398 102.311 182.398 102.311 183.592 104.557C184.677 106.376 184.352 107.339 181.747 110.548C179.576 113.329 178.382 114.078 177.513 113.222C176.645 112.367 176.536 112.688 176.862 114.185C177.513 116.646 172.303 121.567 167.853 122.743C165.573 123.278 164.488 122.743 162.426 120.497L159.929 117.609L154.285 119.32C151.137 120.176 145.276 122.636 141.259 124.669C137.243 126.809 131.924 129.162 129.428 130.018C125.086 131.622 124.761 131.515 118.791 128.413C111.952 124.776 100.989 115.897 97.1902 110.869C90.2433 101.883 85.0332 87.2271 85.0332 77.0643C85.0332 72.0364 87.5297 60.376 88.8323 59.0922C89.1579 58.6643 90.1348 59.1992 91.0031 60.269C92.3057 62.0876 92.4142 62.0876 92.957 60.269C93.2826 59.1992 94.2595 56.5248 95.2364 54.2783C96.2133 52.1387 96.756 50.3201 96.4304 50.3201C96.2133 50.3201 95.2364 52.0318 94.2595 54.1713C92.7399 57.7015 90.4604 58.3434 90.4604 55.2411C90.4604 53.1015 96.3218 45.0783 103.377 37.4829C109.89 30.4225 110.324 28.4969 104.897 31.3853C103.16 32.2411 100.338 33.7388 98.3842 34.7015C96.5389 35.6643 94.6937 37.162 94.368 38.0178C94.0424 38.8736 93.0655 39.6225 92.1971 39.6225C91.4373 39.6225 90.3519 40.3713 90.0263 41.3341C89.7006 42.1899 88.8322 42.6178 88.181 42.1899C87.3126 41.762 87.2041 41.869 87.6383 42.6178C88.0724 43.2597 86.6614 46.1481 84.599 48.9294C80.2572 55.0271 75.5898 68.8271 75.1556 77.0643C74.7214 86.1574 75.1556 92.0411 76.2411 92.0411C76.7838 92.0411 77.0009 88.8318 76.6752 84.7667C76.4582 80.7015 76.6752 74.6039 77.3265 71.1806C78.6291 64.4411 83.5136 53.1015 87.0955 48.6085C90.3519 44.5434 102.292 34.2736 103.811 34.2736C104.571 34.2736 103.594 35.4504 101.749 36.9481C96.1047 41.3341 88.2895 53.6364 86.0101 61.6597C78.7376 87.655 90.569 114.292 115.643 128.199C118.465 129.804 120.853 131.409 120.853 131.729C120.853 133.013 105.982 132.585 101.315 131.088V131.088ZM99.3611 122.743C96.756 120.283 93.7168 116.646 92.6313 114.827C90.569 111.404 88.2895 110.12 88.2895 112.367C88.2895 113.009 88.9408 113.436 89.7006 113.436C90.4604 113.436 91.98 115.576 93.0655 118.25C95.6706 124.455 97.4073 125.953 103.486 127.236C103.811 127.236 101.966 125.311 99.3611 122.743V122.743ZM159.278 115.576C159.712 115.041 160.038 114.185 159.82 113.543C159.603 112.902 157.975 113.543 156.13 115.148C152.982 117.716 152.982 117.822 155.587 117.074C157.107 116.753 158.735 116.004 159.278 115.576ZM109.998 112.581C103.486 108.302 96.756 100.92 93.7168 94.9294C91.98 91.3992 90.4604 89.1527 90.4604 90.0085C90.4604 90.8643 91.8715 94.3946 93.6082 97.9248C96.8646 104.557 101.641 109.799 107.285 112.688C111.627 114.934 113.472 114.827 109.998 112.581V112.581ZM83.9477 107.018C83.2965 105.841 82.3196 104.878 81.7768 104.878C80.2572 104.878 80.4743 105.52 82.4281 107.446C84.7076 109.799 85.3588 109.585 83.9477 107.018ZM81.017 100.813C80.0401 98.1387 77.4351 94.6085 77.4351 95.8922C77.4351 98.3527 79.823 103.809 80.7999 103.274C81.2341 102.953 81.3427 101.883 81.017 100.813V100.813ZM94.8022 15.9806C82.4281 7.7434 71.5736 4.32015 58.4397 4.42712L50.8416 4.5341L56.2688 6.03177C59.3081 6.88759 69.7284 10.2039 79.606 13.3062C89.4835 16.5155 98.0586 19.1899 98.6013 19.1899C99.2525 19.2969 97.5158 17.7992 94.8022 15.9806Z" fill="black"/>
<path d="M459.295 127.343C457.776 126.915 454.519 126.595 452.24 126.808C449.96 126.915 446.921 126.595 445.51 126.167C443.339 125.311 443.122 124.669 443.665 121.567C444.316 118.036 443.014 115.469 441.602 117.715C441.277 118.25 441.494 118.785 442.037 118.785C442.688 118.785 443.231 119.32 443.231 119.855C443.231 120.497 441.82 120.925 440.191 120.925C435.415 120.925 431.942 116.646 431.725 110.227C431.508 107.232 431.833 104.878 432.268 104.878C433.896 104.878 434.656 96.962 433.136 96.1062C431.074 95.0364 430.639 71.3945 432.593 69.469C433.462 68.6132 434.764 66.2597 435.633 64.2271C438.238 57.3806 443.231 53.4225 446.053 55.669C446.813 56.4178 447.355 57.3806 447.03 57.8085C446.704 58.3434 446.921 58.9852 447.464 59.4132C448.007 59.7341 448.875 59.3062 449.418 58.5573C449.852 57.7015 451.046 56.8457 451.914 56.5248C453 56.2039 452.131 55.348 449.418 54.2783C444.425 52.1387 444.859 50.962 451.263 49.3573C459.187 47.4318 466.893 47.8597 471.344 50.5341C475.577 53.2085 480.679 53.2085 483.609 50.6411C484.586 49.7852 487.408 48.8225 489.796 48.5015L494.138 47.9666L494.464 64.762C494.681 73.962 494.355 81.7713 493.921 82.0922C493.378 82.4131 488.819 80.8085 483.826 78.669L474.709 74.6038V70.0038C474.709 66.4736 474.166 65.0829 472.321 63.7992C468.956 61.4457 464.288 61.6597 461.575 64.3341C459.404 66.4736 459.404 67.3294 459.947 88.6178C460.706 113.864 460.706 113.971 469.064 113.115C471.669 112.795 474.057 112.26 474.492 111.832C474.926 111.511 475.468 108.408 475.794 105.092L476.337 98.9945L482.198 97.1759C485.455 96.1062 489.579 95.0364 491.425 94.6085L494.789 94.0736L494.247 105.734C493.704 116.967 492.51 120.925 489.688 120.925C489.037 120.925 487.191 122.102 485.455 123.492C480.462 127.664 467.002 129.59 459.295 127.343V127.343ZM453 85.7294C453 85.1945 452.24 84.5527 451.372 84.1248C450.503 83.8038 449.743 84.0178 449.743 84.6597C449.743 85.3015 448.984 85.6224 448.115 85.1945C447.247 84.8736 446.487 85.0876 446.487 85.6224C446.487 86.2643 448.007 86.6922 449.743 86.6922C451.589 86.6922 453 86.2643 453 85.7294ZM451.48 66.7945C451.154 65.9387 451.372 65.2969 452.023 65.2969C452.674 65.2969 452.674 64.655 451.914 63.2643C451.046 61.5527 450.395 61.4457 448.332 62.4085C444.425 64.2271 446.487 70.3248 450.503 68.8271C451.372 68.5062 451.806 67.5434 451.48 66.7945V66.7945ZM458.97 61.9806C459.404 61.3387 459.404 60.5899 458.97 60.162C458.644 59.8411 457.993 60.055 457.559 60.6969C457.124 61.3387 455.822 62.0876 454.628 62.4085C452.891 62.8364 453.108 62.9434 455.388 63.0504C457.016 63.0504 458.644 62.6225 458.97 61.9806V61.9806Z" fill="black"/>
<path d="M620.267 125.846C619.507 124.562 619.182 124.348 619.508 125.525C620.159 127.45 617.554 128.199 616.36 126.274C616.034 125.739 615.057 125.525 614.297 125.846C613.538 126.167 612.235 125.632 611.475 124.669C610.715 123.813 609.413 123.064 608.653 123.064C607.893 123.064 606.374 121.46 605.288 119.641C603.443 116.111 603.334 113.222 602.9 74.7108L602.792 68.5062H598.993H595.193V62.6224V56.7387H598.993H602.792V50.1062C602.792 40.2643 603.551 38.5527 607.459 38.5527C609.196 38.5527 616.577 37.5899 623.741 36.4131C630.905 35.1294 637.417 34.3806 638.286 34.7015C639.046 35.0224 639.697 36.7341 639.697 38.4457C639.697 41.0131 638.937 42.0829 636.44 43.3666C632.858 45.1852 629.928 49.8922 629.928 53.9573C629.928 56.4178 630.362 56.6317 636.223 56.9527L642.41 57.2736L642.736 62.9434L643.062 68.5062H636.658H630.253L630.579 86.4783C630.796 96.3201 631.013 105.306 631.013 106.483C631.122 110.762 632.641 111.618 639.48 111.404L645.992 111.19L645.884 117.822L645.667 124.455L641.433 125.846C639.154 126.702 633.727 127.557 629.385 127.771C622.221 128.092 621.353 127.985 620.267 125.846V125.846ZM624.066 119.641C623.089 119.106 621.461 118.892 620.376 119.106C619.073 119.427 619.182 119.641 621.027 119.748C622.33 119.748 623.415 120.39 623.415 121.032C623.415 121.567 623.958 121.781 624.609 121.353C625.477 120.818 625.26 120.283 624.066 119.641V119.641Z" fill="black"/>
<path d="M561.327 126.488C553.078 126.167 552.861 126.06 552.861 123.492C552.861 121.674 552.427 120.925 551.558 121.353C534.625 128.306 517.041 125.204 513.676 114.827C512.917 112.367 512.265 101.99 512.048 89.3666C511.94 77.5992 511.505 67.1155 511.071 66.1527C510.637 65.0829 508.575 63.6922 506.512 62.9434C502.822 61.6596 502.713 61.4457 503.365 56.9527C503.69 54.3852 504.233 51.9247 504.45 51.6038C504.667 51.1759 514.219 50.962 525.616 51.1759L546.348 51.4968V56.7387C546.348 61.5527 546.023 62.0875 543.635 62.7294C538.967 63.9061 538.316 66.5806 538.207 87.0131C538.099 104.985 538.208 106.269 540.27 107.66C543.526 109.799 548.953 109.585 551.233 107.018C552.535 105.627 553.295 103.06 553.295 99.7434C553.295 96.962 553.838 94.3945 554.489 93.9666C555.14 93.4317 555.14 93.1108 554.272 93.1108C553.404 93.1108 553.078 87.2271 552.97 72.2503L552.861 51.3899H569.143H585.424V57.8085C585.424 62.5155 584.99 64.2271 584.013 64.2271C583.145 64.2271 581.734 65.0829 580.757 66.1527C579.454 67.6503 579.02 71.0736 578.912 83.4829C578.478 115.148 578.369 113.971 582.711 116.646C585.859 118.571 586.51 119.641 586.51 122.636V126.274H579.563C575.764 126.274 571.965 126.381 571.097 126.595C570.337 126.702 565.886 126.702 561.327 126.488V126.488ZM561.762 120.39C560.568 118.143 559.048 119.962 560.025 122.529C560.459 123.599 561.11 123.92 561.762 123.278C562.522 122.529 562.522 121.567 561.762 120.39ZM569.468 119.534C568.709 119.106 567.623 118.892 567.08 119.32C566.538 119.641 565.778 119.427 565.344 118.785C564.475 117.395 562.63 117.395 562.63 118.785C562.63 119.427 563.281 119.855 564.15 119.855C565.018 119.855 565.995 120.818 566.429 121.888C567.08 123.92 567.189 123.92 569.034 122.208C570.554 120.711 570.554 120.176 569.468 119.534V119.534Z" fill="black"/>
<path d="M257.077 123.064C255.231 121.032 255.014 119.106 255.34 104.022C255.557 85.0876 257.077 76.6364 261.961 67.5434C263.698 64.2271 266.629 55.348 268.474 47.6457C276.832 13.948 281.933 2.92942 289.749 2.18058C294.633 1.6457 294.85 1.96663 294.09 7.85035C293.656 10.8457 293.222 16.6224 293.005 20.5806C292.788 27.3201 292.896 27.748 295.393 28.3899C299.626 29.4597 303.208 33.7387 303.208 37.8038C303.208 41.0131 303.642 41.548 306.465 42.1899C310.806 43.0457 310.589 44.9713 306.247 44.9713C304.294 44.9713 300.278 46.255 297.238 47.7527C293.656 49.4643 290.4 50.3201 287.686 50.1062C285.298 49.9992 283.019 50.5341 282.042 51.3899C280.522 52.9945 266.195 92.6829 262.178 106.804C260.225 113.65 260.116 114.72 261.527 116.111C262.504 116.967 263.481 117.715 263.698 117.715C265.543 117.715 269.017 114.827 271.73 111.083C275.421 106.055 276.181 106.59 272.707 111.618L270.428 115.041L273.358 111.832C279.545 104.878 280.414 103.595 280.414 101.241C280.414 97.1759 284.864 83.162 287.795 77.7062C294.85 64.9759 306.247 57.0597 315.799 58.1294C324.809 59.0922 326.003 61.6597 324.374 76.5294C323.723 82.7341 323.832 84.3387 325.243 85.5155C326.22 86.2643 327.414 86.5852 328.065 86.2643C328.608 85.9434 330.344 81.6643 331.973 76.8504C333.492 71.9294 335.989 65.9387 337.508 63.4783C340.005 59.3062 340.548 58.8783 344.564 58.8783C347.06 58.8783 349.123 59.4132 349.448 60.269C349.665 61.0178 348.906 64.4411 347.712 67.8643C346.518 71.3945 345.541 74.3899 345.541 74.4969C345.541 74.7108 347.603 72.6783 350.1 70.0038C356.07 63.6922 362.474 60.055 368.986 59.3062C376.802 58.5573 377.67 59.4131 375.499 66.6876C374.522 70.0038 373.437 73.5341 373.002 74.6038C372.568 75.6736 374.739 74.069 377.67 70.9666C384.508 64.1201 392.432 60.162 400.898 59.1992C406.434 58.6643 407.52 58.8783 408.062 60.4829C408.497 61.5527 405.674 71.5015 401.007 84.9806C396.774 97.3899 393.3 108.088 393.3 108.836C393.3 110.655 401.767 111.725 403.721 110.12C406.543 107.767 417.18 91.9341 416.529 90.8643C415.335 88.9387 411.753 90.0085 410.233 92.8969C409.148 94.8224 408.605 95.1434 408.497 93.9666C408.497 93.0038 409.799 91.1852 411.319 90.0085C413.707 88.1899 414.575 87.9759 416.529 89.0457C417.723 89.7945 419.242 90.3294 419.894 90.4364C420.436 90.4364 421.088 93.7527 421.305 97.7108C421.63 104.771 421.522 105.092 417.94 108.622C415.661 110.869 412.73 112.474 410.016 112.902C407.52 113.436 404.263 115.041 401.984 117.181C396.665 121.995 393.626 123.385 390.261 122.422C388.633 121.995 386.896 121.567 386.353 121.567C385.702 121.46 384.4 120.069 383.423 118.25C381.686 115.255 381.577 114.292 382.989 106.483C383.857 101.776 385.811 93.8597 387.33 88.9387C388.85 83.9108 390.044 79.4178 390.044 78.8829C390.044 76.5294 382.554 79.6317 375.173 85.1945C366.598 91.7201 365.187 94.2876 361.388 109.799C358.349 122.102 353.79 127.129 349.882 122.529C348.146 120.497 349.123 109.05 352.27 95.9992C353.464 90.7573 354.116 86.2643 353.79 85.9434C353.464 85.6225 351.076 85.8364 348.58 86.4783C344.347 87.548 344.13 87.4411 346.083 86.0504C347.277 85.1945 349.991 84.0178 352.053 83.3759C355.418 82.3062 356.178 81.4504 358.24 75.8876C359.543 72.4643 360.194 69.5759 359.651 69.5759C359.109 69.5759 356.069 72.0364 352.813 74.9248C348.471 78.7759 345.649 82.7341 342.393 89.1527C339.896 94.0736 337.617 99.3155 337.4 100.706C337.074 102.097 335.88 107.553 334.469 112.795C332.515 120.604 331.647 122.422 329.476 123.385C327.197 124.455 326.545 124.241 324.809 122.102C321.986 118.678 321.986 117.715 327.739 91.8271C328.391 89.1527 328.282 89.0457 325.46 89.6876C323.18 90.3294 321.986 91.9341 319.49 97.6038C314.28 109.906 303.751 121.888 300.82 118.999C299.952 118.143 301.363 116.004 305.596 111.404C314.714 101.776 319.707 90.4364 316.776 86.2643C313.194 81.2364 315.582 67.4364 320.141 67.4364C322.204 67.4364 322.095 65.4038 320.033 64.655C312.217 61.6597 300.278 77.0643 293.982 97.9248C289.749 112.046 290.183 117.715 295.502 117.715C297.238 117.715 299.192 118.357 299.843 119.213C301.689 121.353 298.215 123.064 291.92 123.064C286.167 123.064 283.236 120.176 281.391 112.688L280.197 108.088L276.94 112.795C269.668 123.706 261.527 127.878 257.077 123.064ZM265.543 119.641C267.171 118.464 266.954 118.25 263.589 118.25C259.899 118.25 259.031 118.785 260.55 120.176C261.636 121.353 263.481 121.032 265.543 119.641ZM397.425 117.074C400.79 114.827 400.464 113.757 396.014 113.222C392.323 112.795 391.129 113.757 391.129 117.288C391.129 119.32 394.386 119.213 397.425 117.074ZM413.164 109.906C417.397 108.088 419.677 104.343 419.134 99.5294L418.808 95.8922L414.467 102.311C407.303 112.795 407.411 112.26 413.164 109.906ZM260.225 86.1573C260.659 83.3759 260.55 82.6271 259.899 84.0178C259.356 85.1945 258.705 88.8317 258.379 92.0411C257.837 96.5341 257.945 96.962 258.596 94.1806C259.139 92.148 259.79 88.5108 260.225 86.1573ZM382.989 77.9201C386.028 76.3155 389.284 74.9248 390.37 74.9248C391.346 74.9248 392.215 74.4969 392.215 73.962C392.215 73.4271 392.541 72.1434 392.975 71.0736C393.517 69.5759 393.192 69.362 390.695 70.0038C386.353 71.0736 380.383 75.1387 375.39 80.3806C371.483 84.5527 371.374 84.7666 374.305 82.948C376.15 81.7713 380.058 79.5248 382.989 77.9201ZM297.238 46.362C300.386 44.9713 300.169 44.9713 294.199 45.3992C290.726 45.6131 287.252 46.362 286.601 47.0038C284.973 48.6085 293.114 48.1806 297.238 46.362ZM288.88 36.6271C289.532 34.7015 290.291 30.2085 290.617 26.4643C291.16 21.1155 291.051 20.4736 290.183 23.0411C289.532 24.8597 288.989 26.9992 288.772 27.855C288.663 28.7108 288.229 29.9945 287.795 30.5294C286.492 32.669 284.864 39.9434 285.515 40.9062C286.275 42.2969 287.469 40.7992 288.88 36.6271ZM302.123 38.6597C302.123 34.9155 298.649 30.4224 295.284 29.7806C293.005 29.3527 292.571 29.8876 291.051 35.5573L289.423 41.762H295.827C302.014 41.762 302.123 41.762 302.123 38.6597Z" fill="black"/>
<path d="M190.864 120.39C188.476 118.143 188.151 116.86 188.151 110.12C188.151 103.488 187.934 102.632 186.522 103.809C183.375 106.376 183.483 101.99 186.631 96.7481C188.368 93.8597 189.779 89.7946 189.887 87.3341C190.104 83.376 191.95 77.9201 197.703 64.869C198.679 62.6225 200.525 60.055 201.827 59.1992C205.192 57.0597 209.208 57.8085 209.643 60.5899C209.86 62.4085 203.455 83.5899 200.416 90.9713C200.091 91.8271 199.656 93.1108 199.548 93.6457C199.331 94.2876 198.137 98.7806 196.943 103.702C192.71 119.855 195.315 122.743 204.975 112.795C209.208 108.409 210.945 105.734 210.945 103.702C210.945 98.4597 212.79 95.2504 215.83 95.2504C218.218 95.2504 219.194 93.8597 224.296 83.269C233.197 64.869 233.522 64.0132 230.7 60.4829C226.033 54.7062 228.746 48.1806 235.693 48.1806C239.926 48.1806 241.663 51.069 241.12 57.1667C240.686 61.0178 241.229 62.1946 245.245 67.1155C252.301 75.5667 254.689 83.055 254.037 94.3946C253.495 105.199 250.781 111.832 244.485 118.036C241.12 121.246 239.275 122.209 235.151 122.743C229.723 123.278 221.8 121.032 221.8 118.892C221.8 118.25 221.148 117.715 220.28 117.715C219.412 117.715 217.458 116.218 215.938 114.399L213.116 111.083L207.363 117.074C202.37 122.315 201.067 123.064 197.594 123.064C194.663 123.064 192.71 122.315 190.864 120.39V120.39ZM237.538 116.218C240.469 113.329 242.423 107.339 242.423 101.348C242.423 96.6411 239.818 83.269 237.647 77.3853C236.345 73.855 236.019 73.5341 235.259 75.4597C233.848 78.9899 225.164 93.1108 219.954 100.492L215.178 107.339L218.76 112.474C222.342 117.716 223.536 118.25 231.351 118.678C233.848 118.785 235.693 118.036 237.538 116.218V116.218ZM235.91 55.0271C235.91 53.5294 234.608 52.9946 233.414 54.1713C232.437 55.1341 233.848 57.9155 234.933 57.1667C235.476 56.8457 235.91 55.8829 235.91 55.0271V55.0271Z" fill="black"/>
<path d="M161.991 99.7434L158.626 96.748L160.363 87.2271C163.945 66.6876 173.063 53.2085 179.25 59.3062C180.987 61.0178 180.878 61.7666 177.405 70.9666C175.451 76.4225 172.303 85.7294 170.349 91.7201C168.504 97.8178 166.659 102.739 166.225 102.739C165.79 102.739 163.837 101.455 161.991 99.7434V99.7434Z" fill="black"/>
</g>
<defs>
<filter id="filter0_d" x="0" y="0" width="651.992" height="142.49" filterUnits="userSpaceOnUse" color-interpolation-filters="sRGB">
<feFlood flood-opacity="0" result="BackgroundImageFix"/>
<feColorMatrix in="SourceAlpha" type="matrix" values="0 0 0 0 0 0 0 0 0 0 0 0 0 0 0 0 0 0 127 0"/>
<feOffset dy="4"/>
<feGaussianBlur stdDeviation="3"/>
<feColorMatrix type="matrix" values="0 0 0 0 0 0 0 0 0 0 0 0 0 0 0 0 0 0 0.4 0"/>
<feBlend mode="normal" in2="BackgroundImageFix" result="effect1_dropShadow"/>
<feBlend mode="normal" in="SourceGraphic" in2="effect1_dropShadow" result="shape"/>
</filter>
</defs>
</svg>
